<mxfile host="app.diagrams.net" agent="Mozilla/5.0 (Windows NT 10.0; Win64; x64) AppleWebKit/537.36 (KHTML, like Gecko) Chrome/129.0.0.0 Safari/537.36" version="24.7.17">
  <diagram name="Page-1" id="b3McWmjdz8mjdjqkiKQ6">
    <mxGraphModel dx="1434" dy="746" grid="1" gridSize="10" guides="1" tooltips="1" connect="1" arrows="1" fold="1" page="1" pageScale="1" pageWidth="850" pageHeight="1100" math="0" shadow="0">
      <root>
        <mxCell id="0" />
        <mxCell id="1" parent="0" />
        <mxCell id="BZouHnzOBzJ4addWiIE0-1" value="Start" style="whiteSpace=wrap;strokeWidth=2;" vertex="1" parent="1">
          <mxGeometry x="81" y="20" width="96" height="49" as="geometry" />
        </mxCell>
        <mxCell id="BZouHnzOBzJ4addWiIE0-2" value="User clicks logout" style="whiteSpace=wrap;strokeWidth=2;" vertex="1" parent="1">
          <mxGeometry x="36" y="119" width="187" height="49" as="geometry" />
        </mxCell>
        <mxCell id="BZouHnzOBzJ4addWiIE0-3" value="Log user out" style="whiteSpace=wrap;strokeWidth=2;" vertex="1" parent="1">
          <mxGeometry x="55" y="218" width="149" height="49" as="geometry" />
        </mxCell>
        <mxCell id="BZouHnzOBzJ4addWiIE0-4" value="Redirect to login page" style="whiteSpace=wrap;strokeWidth=2;" vertex="1" parent="1">
          <mxGeometry x="20" y="317" width="218" height="49" as="geometry" />
        </mxCell>
        <mxCell id="BZouHnzOBzJ4addWiIE0-5" value="End" style="whiteSpace=wrap;strokeWidth=2;" vertex="1" parent="1">
          <mxGeometry x="86" y="416" width="86" height="49" as="geometry" />
        </mxCell>
        <mxCell id="BZouHnzOBzJ4addWiIE0-6" value="" style="curved=1;startArrow=none;endArrow=block;exitX=0.5;exitY=1;entryX=0.5;entryY=0;rounded=0;" edge="1" parent="1" source="BZouHnzOBzJ4addWiIE0-1" target="BZouHnzOBzJ4addWiIE0-2">
          <mxGeometry relative="1" as="geometry">
            <Array as="points" />
          </mxGeometry>
        </mxCell>
        <mxCell id="BZouHnzOBzJ4addWiIE0-7" value="" style="curved=1;startArrow=none;endArrow=block;exitX=0.5;exitY=1;entryX=0.5;entryY=0;rounded=0;" edge="1" parent="1" source="BZouHnzOBzJ4addWiIE0-2" target="BZouHnzOBzJ4addWiIE0-3">
          <mxGeometry relative="1" as="geometry">
            <Array as="points" />
          </mxGeometry>
        </mxCell>
        <mxCell id="BZouHnzOBzJ4addWiIE0-8" value="" style="curved=1;startArrow=none;endArrow=block;exitX=0.5;exitY=1;entryX=0.5;entryY=0;rounded=0;" edge="1" parent="1" source="BZouHnzOBzJ4addWiIE0-3" target="BZouHnzOBzJ4addWiIE0-4">
          <mxGeometry relative="1" as="geometry">
            <Array as="points" />
          </mxGeometry>
        </mxCell>
        <mxCell id="BZouHnzOBzJ4addWiIE0-9" value="" style="curved=1;startArrow=none;endArrow=block;exitX=0.5;exitY=1;entryX=0.5;entryY=0;rounded=0;" edge="1" parent="1" source="BZouHnzOBzJ4addWiIE0-4" target="BZouHnzOBzJ4addWiIE0-5">
          <mxGeometry relative="1" as="geometry">
            <Array as="points" />
          </mxGeometry>
        </mxCell>
      </root>
    </mxGraphModel>
  </diagram>
</mxfile>
